<svg width="301" height="275" viewBox="0 0 301 275" fill="none" xmlns="http://www.w3.org/2000/svg" role="img" aria-label="CodeCrush">
  <defs>
    <linearGradient id="ccChevronGradient" x1="150" y1="25" x2="215" y2="275" gradientUnits="userSpaceOnUse">
      <stop stop-color="#F1257A" />
      <stop offset="0.55" stop-color="#F7691E" />
      <stop offset="1" stop-color="#FBC312" />
    </linearGradient>
  </defs>
  <path d="M275.003 150.409L150.396 275.004L120.293 244.88L214.774 150.409L120.293 55.9135L150.396 25.8137L275.003 150.409Z" fill="url(#ccChevronGradient)"/>
  <path d="M157.35 19.5438C191.955 -8.45823 242.826 -6.36044 274.979 25.8136C307.156 57.9877 309.231 108.853 281.25 143.455L250.817 113.002C262.368 95.3474 260.388 71.423 244.877 55.9135C229.365 40.4039 205.439 38.424 187.783 49.9737L157.35 19.5203V19.5438Z" fill="white"/>
  <path d="M25.8125 25.8136C57.9661 -6.36043 108.813 -8.45823 143.395 19.5203L112.938 49.9737C95.2821 38.4476 71.4027 40.4275 55.8916 55.9371C38.1176 73.7094 38.1176 102.536 55.8916 120.309L143.725 208.157L113.622 238.257L25.8125 150.409C-8.60415 115.995 -8.60415 60.2034 25.8125 25.8136Z" fill="white"/>
</svg>
